<?xml version="1.0" encoding="UTF-8"?><svg xmlns="http://www.w3.org/2000/svg" xmlns:xlink="http://www.w3.org/1999/xlink" version="1.2" width="100%" viewBox="0 0 128 128" xml:space="preserve" baseProfile="tiny-ps"><title>sencillo.co</title><path fill="#CF67B9" stroke="none" d=" M0.999999,46.000000   C1.000000,31.073294 1.000000,16.146585 1.000000,1.000000   C15.686830,1.000000 30.374756,1.000000 45.454308,1.333565   C45.212044,2.626706 44.718582,3.726060 43.923317,4.525000   C30.894587,17.613958 17.844149,30.681507 4.737351,43.692177   C3.725249,44.696857 2.256501,45.241520 0.999999,46.000000  z"></path><path fill="#0AC198" stroke="none" d=" M129.000000,88.000000   C129.000000,101.593330 129.000000,115.186668 129.000000,129.000000   C115.646576,129.000000 102.291946,129.000000 88.545731,128.666443   C88.671448,127.495995 89.050774,126.521812 89.726570,125.842598   C101.661774,113.846909 113.617432,101.871376 125.628494,89.951775   C126.519989,89.067062 127.865540,88.639885 129.000000,88.000000  z"></path><path fill="#2DAAB3" stroke="none" d=" M58.000000,129.000000   C55.958008,129.000000 53.916016,129.000000 51.462082,128.640625   C52.200741,126.520348 53.102348,124.516426 54.543858,123.039452   C61.858768,115.544540 69.387604,108.257591 76.658943,100.721649   C78.160667,99.165283 78.886276,96.860054 80.109146,94.589767   C82.448891,92.182205 84.649086,90.084854 87.218048,87.967094   C89.359070,86.829857 91.401146,85.987328 92.860191,84.552086   C103.029900,74.548286 113.027069,64.368820 123.221603,54.390797   C124.770348,52.874950 127.055473,52.111477 129.000000,51.000000   C129.000000,53.041992 129.000000,55.083984 128.640640,57.588036   C126.640732,59.080742 124.738853,59.848625 123.398773,61.181393   C102.814308,81.653610 82.273888,102.170509 61.828987,122.781914   C60.159683,124.464806 59.258244,126.909363 58.000000,129.000000  z"></path><path fill="#26AEAD" stroke="none" d=" M58.437500,129.000000   C59.258244,126.909363 60.159683,124.464806 61.828987,122.781914   C82.273888,102.170509 102.814308,81.653610 123.398773,61.181393   C124.738853,59.848625 126.640732,59.080742 128.640640,58.025047   C129.000000,60.041668 129.000000,62.083332 128.666443,64.639580   C127.137558,66.020874 125.800674,66.745613 124.767853,67.775337   C105.697983,86.788063 86.651688,105.824532 67.655296,124.910606   C66.533272,126.037926 65.874397,127.626213 65.000000,129.000000   C62.958332,129.000000 60.916668,129.000000 58.437500,129.000000  z"></path><path fill="#9E77C5" stroke="none" d=" M76.000000,1.000001   C77.388893,1.000000 78.777779,1.000000 80.505058,1.336363   C78.863190,4.312120 77.123550,7.182240 74.856430,9.546570   C68.668152,16.000206 62.195610,22.181047 55.995121,28.623407   C54.955563,29.703520 54.712749,31.550463 53.889404,33.333286   C47.539513,34.739067 44.209106,39.239151 40.781326,44.099613   C38.877029,45.358318 37.163494,46.399017 35.778145,47.771076   C26.095161,57.361130 16.534103,67.075027 6.787934,76.599800   C5.234571,78.117882 2.947739,78.885452 0.999999,80.000000   C1.000000,78.933479 1.000000,77.866966 1.334319,76.322906   C2.984251,74.858879 4.434849,74.008957 5.593534,72.863708   C13.026947,65.516533 20.343449,58.050735 27.799469,50.726849   C38.340668,40.372459 48.991772,30.130037 59.550869,19.793756   C64.528252,14.921406 69.463142,10.001369 74.267044,4.959779   C75.201126,3.979477 75.440300,2.337028 76.000000,1.000001  z"></path><path fill="#12BC9E" stroke="none" d=" M129.000000,87.555832   C127.865540,88.639885 126.519989,89.067062 125.628494,89.951775   C113.617432,101.871376 101.661774,113.846909 89.726570,125.842598   C89.050774,126.521812 88.671448,127.495995 88.077072,128.666443   C85.629440,129.000000 83.258888,129.000000 80.521393,128.666504   C80.784554,127.377510 81.274078,126.281998 82.065598,125.487267   C96.437477,111.056984 110.830879,96.647995 125.278183,82.293327   C126.284683,81.293274 127.748726,80.753700 129.000000,80.000000   C129.000000,82.370560 129.000000,84.741112 129.000000,87.555832  z"></path><path fill="#C56ABC" stroke="none" d=" M0.999999,46.428463   C2.256501,45.241520 3.725249,44.696857 4.737351,43.692177   C17.844149,30.681507 30.894587,17.613958 43.923317,4.525000   C44.718582,3.726060 45.212044,2.626706 45.922966,1.333565   C47.714359,1.000000 49.428715,1.000000 51.546471,1.359364   C51.033016,3.245146 50.377148,5.030320 49.159473,6.258492   C34.868725,20.672461 20.525530,35.035095 6.086901,49.300674   C4.779008,50.592892 2.713617,51.118427 1.000000,52.000000   C1.000000,50.285641 1.000000,48.571285 0.999999,46.428463  z"></path><path fill="#578ED4" stroke="none" d=" M11.000000,129.000000   C7.666667,128.666672 4.333333,128.333328 1.347298,127.429153   C4.313071,124.669334 7.053875,122.609375 9.525715,120.265747   C15.511574,114.590401 21.333235,108.742226 27.294943,103.040955   C32.421600,98.138222 37.650444,93.342354 43.065845,88.686508   C44.238243,89.902794 45.178902,90.931816 45.871395,92.188736   C39.148991,98.789940 32.508701,105.005318 26.251354,111.584885   C20.938126,117.171715 16.066837,123.178841 11.000000,129.000000  z"></path><path fill="#20B2A9" stroke="none" d=" M65.416664,129.000000   C65.874397,127.626213 66.533272,126.037926 67.655296,124.910606   C86.651688,105.824532 105.697983,86.788063 124.767853,67.775337   C125.800674,66.745613 127.137558,66.020874 128.666443,65.077080   C129.000000,66.388893 129.000000,67.777779 128.666443,69.660416   C127.138748,71.019814 125.803383,71.743774 124.771469,72.772202   C107.365082,90.119843 89.982582,107.491554 72.651733,124.914574   C71.531227,126.041039 70.873169,127.627510 70.000000,129.000000   C68.611107,129.000000 67.222221,129.000000 65.416664,129.000000  z"></path><path fill="#A475C3" stroke="none" d=" M75.583344,1.000001   C75.440300,2.337028 75.201126,3.979477 74.267044,4.959779   C69.463142,10.001369 64.528252,14.921406 59.550869,19.793756   C48.991772,30.130037 38.340668,40.372459 27.799469,50.726849   C20.343449,58.050735 13.026947,65.516533 5.593534,72.863708   C4.434849,74.008957 2.984251,74.858879 1.334319,75.922684   C1.000000,74.933327 1.000000,73.866661 1.359307,72.374855   C3.812590,69.966690 5.906566,67.983650 8.282795,65.828613   C10.709702,63.770840 12.854358,61.885063 15.281213,59.823639   C18.042463,56.765556 20.521517,53.883121 23.186115,50.853569   C23.608435,50.495304 23.818115,50.260010 24.334179,49.923382   C28.445297,45.897713 32.222946,41.949234 36.000298,38.000381   C36.000000,38.000000 36.000767,38.000599 36.333847,37.923481   C38.778156,35.564491 40.889389,33.282619 43.186180,30.853645   C43.608521,30.495386 43.818211,30.260088 44.334213,29.923428   C47.445404,26.897882 50.223183,23.949551 53.282715,20.825180   C59.376312,14.099429 65.188156,7.549715 71.000000,1.000001   C72.388893,1.000000 73.777779,1.000000 75.583344,1.000001  z"></path><path fill="#6F86CF" stroke="none" d=" M0.999999,115.000000   C1.000000,113.611000 1.000000,112.222008 1.333540,110.339401   C3.101099,108.740982 4.673903,107.775787 5.947584,106.509674   C18.120895,94.408699 30.259890,82.272995 42.360203,70.099022   C43.871597,68.578430 45.101578,66.778122 46.812424,65.108383   C48.118954,65.717758 49.075008,66.326180 49.854980,67.221909   C46.787434,71.283676 43.895969,75.058144 40.748444,78.959534   C40.272915,79.391846 40.053452,79.697227 39.512337,80.087463   C37.662128,81.413002 36.014931,82.534081 34.624203,83.913689   C25.328732,93.134888 16.143814,102.468452 6.774060,111.612915   C5.223952,113.125748 2.943133,113.889870 0.999999,115.000000  z"></path><path fill="#4C95CC" stroke="none" d=" M129.000000,15.999999   C129.000000,17.388998 129.000000,18.777994 128.666443,20.660578   C126.786285,22.371578 125.124969,23.469454 123.711578,24.825705   C114.144012,34.006493 104.482788,43.097519 95.163818,52.525925   C91.052444,56.685585 87.670258,61.565983 83.671738,65.986465   C82.592506,65.180290 81.798546,64.506813 81.031731,63.484425   C82.005394,61.624821 82.711273,59.875690 83.935493,58.640144   C96.814369,45.642086 109.731171,32.680481 122.769714,19.843096   C124.464676,18.174286 126.904953,17.262461 129.000000,15.999999  z"></path><path fill="#AB72C2" stroke="none" d=" M44.000805,30.000643   C43.818211,30.260088 43.608521,30.495386 42.852943,30.930443   C40.223022,33.436432 38.111897,35.718513 36.000767,38.000599   C36.000767,38.000599 36.000000,38.000000 35.666687,38.077263   C31.555815,42.103210 27.778263,46.051891 24.000710,50.000572   C23.818115,50.260010 23.608435,50.495304 22.851746,50.930786   C19.887554,54.103172 17.443285,57.051228 14.999014,59.999283   C12.854358,61.885063 10.709702,63.770840 7.949855,65.905273   C5.223108,67.435959 3.111554,68.717979 1.000000,70.000000   C1.000000,69.250000 1.000000,68.500000 1.333523,67.297844   C2.860508,65.980759 4.195575,65.257843 5.226480,64.229889   C24.966604,44.546360 44.683262,24.839203 64.350708,5.083116   C65.470787,3.957993 66.127586,2.371673 67.000000,1.000000   C68.066673,1.000000 69.133339,1.000000 70.600006,1.000001   C65.188156,7.549715 59.376312,14.099429 52.949089,20.901913   C49.556076,24.103334 46.778439,27.051989 44.000805,30.000643  z"></path><path fill="#BD6DBD" stroke="none" d=" M1.000000,52.416664   C2.713617,51.118427 4.779008,50.592892 6.086901,49.300674   C20.525530,35.035095 34.868725,20.672461 49.159473,6.258492   C50.377148,5.030320 51.033016,3.245146 51.974937,1.359364   C53.388889,1.000000 54.777779,1.000000 56.513237,1.345577   C54.880180,4.306151 53.167786,7.188587 50.869698,9.484875   C44.543705,15.805925 37.838604,21.748352 31.531477,28.087320   C23.442881,36.216763 15.675943,44.666317 7.583683,52.791985   C5.789593,54.593479 3.215138,55.617821 1.000000,57.000000   C1.000000,55.611111 1.000000,54.222221 1.000000,52.416664  z"></path><path fill="#5191D0" stroke="none" d=" M129.000000,15.583332   C126.904953,17.262461 124.464676,18.174286 122.769714,19.843096   C109.731171,32.680481 96.814369,45.642086 83.935493,58.640144   C82.711273,59.875690 82.005394,61.624821 80.725037,63.463207   C79.579391,63.232365 78.767586,62.673840 78.038300,61.767891   C80.414307,58.002262 82.707802,54.584045 85.381645,51.098122   C86.563675,50.021221 87.365341,49.012035 88.488411,47.916687   C90.334023,46.592884 91.977028,45.474884 93.363426,44.098431   C103.332886,34.200485 113.198006,24.196659 123.239418,14.372790   C124.782532,12.863100 127.061401,12.105453 129.000000,11.000000   C129.000000,12.388889 129.000000,13.777778 129.000000,15.583332  z"></path><path fill="#18B8A2" stroke="none" d=" M129.000000,79.600006   C127.748726,80.753700 126.284683,81.293274 125.278183,82.293327   C110.830879,96.647995 96.437477,111.056984 82.065598,125.487267   C81.274078,126.281998 80.784554,127.377510 80.077225,128.666504   C78.933327,129.000000 77.866661,129.000000 76.477081,128.666504   C77.769318,125.888588 79.384460,123.444145 81.185120,120.852554   C81.607368,120.494247 81.817055,120.258972 82.285782,119.904602   C83.047752,119.206306 83.523636,118.602997 84.261719,117.839661   C85.349152,116.786217 86.174385,115.892807 87.328583,114.923691   C88.771492,113.565178 89.885437,112.282356 91.234024,110.764565   C93.978973,108.019524 96.489288,105.509453 99.333046,102.922470   C102.110825,100.230270 104.555168,97.614983 107.151062,94.755829   C107.868309,94.007812 108.434006,93.503662 109.285782,92.904549   C110.047745,92.206276 110.523613,91.602959 111.185013,90.852493   C111.607315,90.494164 111.817017,90.258865 112.337685,89.920151   C114.117432,87.894104 115.559143,85.947350 117.178711,83.716858   C119.904243,81.288544 122.451920,79.143967 125.337555,76.935204   C126.783676,76.580681 127.891838,76.290344 129.000000,76.000000   C129.000000,77.066673 129.000000,78.133339 129.000000,79.600006  z"></path><path fill="#608AD3" stroke="none" d=" M42.834106,88.499237   C37.650444,93.342354 32.421600,98.138222 27.294943,103.040955   C21.333235,108.742226 15.511574,114.590401 9.525715,120.265747   C7.053875,122.609375 4.313071,124.669334 1.347298,126.929153   C1.000000,125.285645 1.000000,123.571281 1.333532,121.351334   C3.215966,119.625984 4.900883,118.543427 6.291899,117.164413   C15.976155,107.563690 25.543737,97.844429 35.299377,88.317429   C36.852444,86.800766 39.162685,86.059441 41.413063,85.146324   C42.080208,86.388405 42.457157,87.443817 42.834106,88.499237  z"></path><path fill="#6389D2" stroke="none" d=" M118.000000,1.000001   C119.714378,1.000000 121.428749,1.000000 123.500671,1.347758   C123.040550,3.118365 122.475845,4.788595 121.364906,5.924653   C113.015785,14.462497 104.678062,23.018742 96.076797,31.299179   C92.680885,34.568417 88.622856,37.149891 84.609413,39.934731   C83.888405,39.255444 83.424301,38.685963 83.133621,37.824547   C93.652695,27.073801 104.027107,16.643120 114.311333,6.124252   C115.766060,4.636325 116.781326,2.718724 118.000000,1.000001  z"></path><path fill="#32A6B8" stroke="none" d=" M129.000000,50.571537   C127.055473,52.111477 124.770348,52.874950 123.221603,54.390797   C113.027069,64.368820 103.029900,74.548286 92.860191,84.552086   C91.401146,85.987328 89.359070,86.829857 87.288773,87.590958   C87.716347,84.824623 88.441956,82.414032 89.516418,79.974655   C91.603844,78.770370 93.572815,77.828926 95.043533,76.381287   C104.481956,67.090942 113.755905,57.633034 123.231522,48.381386   C124.779335,46.870163 127.058739,46.108242 129.000000,45.000000   C129.000000,46.714359 129.000000,48.428715 129.000000,50.571537  z"></path><path fill="#9779C6" stroke="none" d=" M0.999999,80.428467   C2.947739,78.885452 5.234571,78.117882 6.787934,76.599800   C16.534103,67.075027 26.095161,57.361130 35.778145,47.771076   C37.163494,46.399017 38.877029,45.358318 40.735565,44.504486   C40.633053,46.896156 40.233654,48.947605 39.509285,51.086277   C32.264355,57.733814 25.430164,64.387848 18.397408,70.824944   C12.722587,76.019112 6.808142,80.951485 1.000001,86.000000   C1.000000,84.285645 1.000000,82.571281 0.999999,80.428467  z"></path><path fill="#5B8CD4" stroke="none" d=" M84.866318,40.044533   C88.622856,37.149891 92.680885,34.568417 96.076797,31.299179   C104.678062,23.018742 113.015785,14.462497 121.364906,5.924653   C122.475845,4.788595 123.040550,3.118365 123.929108,1.347758   C125.864624,1.670074 129.748230,-1.024826 128.666473,4.577169   C126.789597,6.368595 125.109268,7.444855 123.724625,8.819048   C113.142807,19.321032 102.649071,29.911932 92.041451,40.387592   C90.562546,41.848103 88.611458,42.830467 86.593735,43.864189   C85.827789,42.477646 85.347054,41.261089 84.866318,40.044533  z"></path><path fill="#5092CF" stroke="none" d=" M11.428463,129.000000   C16.066837,123.178841 20.938126,117.171715 26.251354,111.584885   C32.508701,105.005318 39.148991,98.789940 46.160286,92.324310   C47.832417,93.142799 48.967495,94.053612 49.811394,95.138565   C39.316921,105.410698 29.094950,115.490021 18.943111,125.639488   C18.059093,126.523293 17.636774,127.868896 17.000000,129.000000   C15.285642,129.000000 13.571283,129.000000 11.428463,129.000000  z"></path><path fill="#1DB5A6" stroke="none" d=" M81.999695,119.999580   C81.817055,120.258972 81.607368,120.494247 80.851761,120.929688   C77.888588,123.769310 75.444298,126.384651 73.000000,129.000000   C72.250000,129.000000 71.500000,129.000000 70.375000,129.000000   C70.873169,127.627510 71.531227,126.041039 72.651733,124.914574   C89.982582,107.491554 107.365082,90.119843 124.771469,72.772202   C125.803383,71.743774 127.138748,71.019814 128.666443,70.077087   C129.000000,70.750000 129.000000,71.500000 128.671082,72.700867   C127.227974,74.434280 126.113785,75.716835 124.999596,76.999390   C122.451920,79.143967 119.904243,81.288544 116.897301,83.892044   C114.958572,86.233788 113.479111,88.116615 111.999657,89.999443   C111.817017,90.258865 111.607315,90.494164 110.899033,90.947617   C109.951576,91.793098 109.475639,92.396309 108.999695,92.999512   C108.434006,93.503662 107.868309,94.007812 106.817711,94.832962   C103.888412,97.769104 101.444016,100.384247 98.999603,102.999390   C96.489288,105.509453 93.978973,108.019524 90.905182,110.840515   C89.227676,112.434082 88.113647,113.716736 86.999619,114.999397   C86.174385,115.892807 85.349152,116.786217 83.975739,117.934784   C82.951599,118.793144 82.475647,119.396362 81.999695,119.999580  z"></path><path fill="#6D86D0" stroke="none" d=" M117.571541,1.000001   C116.781326,2.718724 115.766060,4.636325 114.311333,6.124252   C104.027107,16.643120 93.652695,27.073801 82.849884,37.692589   C81.596481,37.186802 80.800255,36.521046 80.087486,35.532051   C81.401421,33.684982 82.511139,32.041569 83.882210,30.656973   C92.006149,22.452906 100.227592,14.345115 108.320824,6.111160   C109.775177,4.631510 110.784958,2.714878 112.000000,1.000001   C113.714355,1.000000 115.428719,1.000000 117.571541,1.000001  z"></path><path fill="#8180CB" stroke="none" d=" M1.000000,102.000000   C1.000000,100.285622 1.000000,98.571251 1.359367,96.403366   C3.480058,94.798927 5.485934,93.898155 6.961842,92.455276   C14.809287,84.783501 22.571936,77.023056 30.264154,69.195244   C34.096123,65.295738 37.714851,61.186676 41.630695,57.468414   C42.575516,59.168858 43.319675,60.573288 43.726181,62.056187   C41.831806,63.350353 40.132984,64.422867 38.740925,65.804466   C27.858208,76.605453 17.062708,87.494431 6.159289,98.274315   C4.668700,99.748009 2.730798,100.769264 1.000000,102.000000  z"></path><path fill="#558ED3" stroke="none" d=" M86.878937,44.034172   C88.611458,42.830467 90.562546,41.848103 92.041451,40.387592   C102.649071,29.911932 113.142807,19.321032 123.724625,8.819048   C125.109268,7.444855 126.789597,6.368595 128.666473,5.077168   C129.000000,6.714358 129.000000,8.428717 129.000000,10.571537   C127.061401,12.105453 124.782532,12.863100 123.239418,14.372790   C113.198006,24.196659 103.332886,34.200485 93.363426,44.098431   C91.977028,45.474884 90.334023,46.592884 88.406998,47.572739   C87.629105,46.221359 87.254021,45.127766 86.878937,44.034172  z"></path><path fill="#8F7BC8" stroke="none" d=" M1.000001,86.428467   C6.808142,80.951485 12.722587,76.019112 18.397408,70.824944   C25.430164,64.387848 32.264355,57.733814 39.586105,51.432320   C40.284954,52.794571 40.582027,53.897999 40.554222,55.084282   C38.699123,56.398464 37.045124,57.505062 35.658543,58.881123   C25.794546,68.670265 16.015966,78.545639 6.125229,88.307480   C4.644452,89.768951 2.719481,90.780373 0.999999,92.000000   C1.000000,90.285645 1.000000,88.571281 1.000001,86.428467  z"></path><path fill="#B071C0" stroke="none" d=" M66.600006,1.000000   C66.127586,2.371673 65.470787,3.957993 64.350708,5.083116   C44.683262,24.839203 24.966604,44.546360 5.226480,64.229889   C4.195575,65.257843 2.860508,65.980759 1.333523,66.922844   C1.000000,65.933334 1.000000,64.866661 1.359362,63.374863   C3.364449,61.914284 5.270477,61.140877 6.616532,59.803757   C24.456738,42.081882 42.246822,24.309095 59.945210,6.445766   C61.357208,5.020608 61.999832,2.833185 63.000000,1.000000   C64.066673,1.000000 65.133339,1.000000 66.600006,1.000000  z"></path><path fill="#6888D1" stroke="none" d=" M41.122864,84.959663   C39.162685,86.059441 36.852444,86.800766 35.299377,88.317429   C25.543737,97.844429 15.976155,107.563690 6.291899,117.164413   C4.900883,118.543427 3.215966,119.625984 1.333532,120.922867   C1.000000,119.285645 1.000000,117.571281 0.999999,115.428459   C2.943133,113.889870 5.223952,113.125748 6.774060,111.612915   C16.143814,102.468452 25.328732,93.134888 34.624203,83.913689   C36.014931,82.534081 37.662128,81.413002 39.687889,80.420700   C40.497684,82.099274 40.810276,83.529465 41.122864,84.959663  z"></path><path fill="#B86EBF" stroke="none" d=" M1.000000,57.399994   C3.215138,55.617821 5.789593,54.593479 7.583683,52.791985   C15.675943,44.666317 23.442881,36.216763 31.531477,28.087320   C37.838604,21.748352 44.543705,15.805925 50.869698,9.484875   C53.167786,7.188587 54.880180,4.306151 56.929905,1.345577   C58.066669,1.000000 59.133339,1.000000 60.522861,1.333527   C59.981037,2.860211 59.258083,4.194628 58.230591,5.225504   C40.547276,22.966995 22.839958,40.684681 5.081765,58.351154   C3.956481,59.470627 2.371253,60.127769 0.999999,61.000000   C1.000000,59.933331 1.000000,58.866661 1.000000,57.399994  z"></path><path fill="#419CC4" stroke="none" d=" M34.000000,129.000000   C31.957682,129.000000 29.915365,129.000000 27.513653,128.666473   C28.371685,126.786293 29.455698,125.108124 30.829050,123.715225   C37.706547,116.739914 44.722313,109.899879 51.539177,102.866608   C53.093170,101.263298 54.051746,99.082886 55.707386,97.143013   C57.755131,97.464500 59.379860,97.811066 60.918556,98.480110   C56.738445,103.303719 52.599461,107.765007 48.561787,112.316177   C43.663162,117.837799 38.850090,123.435318 34.000000,129.000000  z"></path><path fill="#897DCA" stroke="none" d=" M0.999999,92.399994   C2.719481,90.780373 4.644452,89.768951 6.125229,88.307480   C16.015966,78.545639 25.794546,68.670265 35.658543,58.881123   C37.045124,57.505062 38.699123,56.398464 40.620472,55.359238   C41.151081,56.091694 41.290558,56.632046 41.430038,57.172401   C37.714851,61.186676 34.096123,65.295738 30.264154,69.195244   C22.571936,77.023056 14.809287,84.783501 6.961842,92.455276   C5.485934,93.898155 3.480058,94.798927 1.359367,95.974930   C1.000000,94.933327 1.000000,93.866661 0.999999,92.399994  z"></path><path fill="#33A6B8" stroke="none" d=" M79.969604,94.899979   C78.886276,96.860054 78.160667,99.165283 76.658943,100.721649   C69.387604,108.257591 61.858768,115.544540 54.543858,123.039452   C53.102348,124.516426 52.200741,126.520348 51.025070,128.640625   C49.285641,129.000000 47.571285,129.000000 45.498573,128.654602   C49.485073,123.391075 53.812721,118.457588 58.179485,113.558983   C62.768414,108.411171 67.394798,103.296738 72.331650,98.002533   C75.095528,96.858223 77.532562,95.879105 79.969604,94.899979  z"></path><path fill="#4798C8" stroke="none" d=" M55.284363,97.168091   C54.051746,99.082886 53.093170,101.263298 51.539177,102.866608   C44.722313,109.899879 37.706547,116.739914 30.829050,123.715225   C29.455698,125.108124 28.371685,126.786293 27.077129,128.666473   C25.611111,129.000000 24.222221,129.000000 22.441799,128.640656   C23.202578,126.518646 24.106276,124.513496 25.549166,123.034286   C32.754078,115.648033 40.143745,108.442139 47.361122,101.067787   C48.823883,99.573227 49.824120,97.625992 51.361740,95.934082   C52.885384,96.376511 54.084873,96.772301 55.284363,97.168091  z"></path><path fill="#4898C9" stroke="none" d=" M83.957024,66.119164   C87.670258,61.565983 91.052444,56.685585 95.163818,52.525925   C104.482788,43.097519 114.144012,34.006493 123.711578,24.825705   C125.124969,23.469454 126.786285,22.371578 128.666443,21.077082   C129.000000,22.066669 129.000000,23.133339 128.666473,24.677132   C127.376213,25.785404 126.279915,26.276289 125.483673,27.068686   C113.025589,39.466717 100.588173,51.885742 88.211998,64.365402   C87.213722,65.372032 86.697533,66.856743 85.690430,68.002953   C84.934708,67.297462 84.445862,66.708313 83.957024,66.119164  z"></path><path fill="#B470C0" stroke="none" d=" M0.999999,61.333332   C2.371253,60.127769 3.956481,59.470627 5.081765,58.351154   C22.839958,40.684681 40.547276,22.966995 58.230591,5.225504   C59.258083,4.194628 59.981037,2.860211 60.922859,1.333527   C61.444447,1.000000 61.888889,1.000000 62.666668,1.000000   C61.999832,2.833185 61.357208,5.020608 59.945210,6.445766   C42.246822,24.309095 24.456738,42.081882 6.616532,59.803757   C5.270477,61.140877 3.364449,61.914284 1.359362,62.974865   C1.000000,62.555553 1.000000,62.111111 0.999999,61.333332  z"></path><path fill="#3BA0BF" stroke="none" d=" M34.428463,129.000000   C38.850090,123.435318 43.663162,117.837799 48.561787,112.316177   C52.599461,107.765007 56.738445,103.303719 61.331589,98.413376   C63.221630,98.071968 64.612610,98.119781 65.974823,98.516464   C65.463921,99.894890 65.209389,101.143814 64.462791,101.918518   C59.531910,107.035095 54.346134,111.912827 49.543419,117.143822   C46.119541,120.873016 43.164345,125.032524 40.000000,129.000000   C38.285641,129.000000 36.571285,129.000000 34.428463,129.000000  z"></path><path fill="#3BA0BF" stroke="none" d=" M129.000000,36.000000   C129.000000,37.066788 129.000000,38.133575 128.664093,39.678211   C122.794754,45.241505 117.268921,50.335270 111.725998,55.410362   C104.220436,62.282452 96.701752,69.140205 89.119064,75.685745   C88.754997,74.578751 88.460556,73.790131 88.487785,72.915520   C90.227364,71.698700 91.764763,70.688217 93.044174,69.417900   C102.841827,59.689960 112.527542,49.848194 122.407982,40.205692   C124.234169,38.423489 126.784103,37.382885 129.000000,36.000000  z"></path><path fill="#7683CE" stroke="none" d=" M46.461952,65.107430   C45.101578,66.778122 43.871597,68.578430 42.360203,70.099022   C30.259890,82.272995 18.120895,94.408699 5.947584,106.509674   C4.673903,107.775787 3.101099,108.740982 1.333540,109.922897   C1.000000,108.933327 1.000000,107.866661 1.333513,106.322800   C3.210171,104.631683 4.891068,103.556427 6.274761,102.181969   C17.789942,90.743591 29.226398,79.225906 40.756687,67.802879   C42.244057,66.329346 44.131702,65.259850 45.941757,64.185425   C46.182426,64.616829 46.319881,64.863419 46.461952,65.107430  z"></path><path fill="#37A3BB" stroke="none" d=" M89.188705,76.004120   C96.701752,69.140205 104.220436,62.282452 111.725998,55.410362   C117.268921,50.335270 122.794754,45.241505 128.664093,40.078030   C129.000000,41.388889 129.000000,42.777779 129.000000,44.583336   C127.058739,46.108242 124.779335,46.870163 123.231522,48.381386   C113.755905,57.633034 104.481956,67.090942 95.043533,76.381287   C93.572815,77.828926 91.603844,78.770370 89.448639,79.577805   C89.084236,78.141190 89.136475,77.072655 89.188705,76.004120  z"></path><path fill="#7B82CD" stroke="none" d=" M45.833923,64.003181   C44.131702,65.259850 42.244057,66.329346 40.756687,67.802879   C29.226398,79.225906 17.789942,90.743591 6.274761,102.181969   C4.891068,103.556427 3.210171,104.631683 1.333513,105.922806   C1.000000,104.933327 1.000000,103.866661 1.000000,102.399994   C2.730798,100.769264 4.668700,99.748009 6.159289,98.274315   C17.062708,87.494431 27.858208,76.605453 38.740925,65.804466   C40.132984,64.422867 41.831806,63.350353 43.987385,62.171188   C45.002140,62.806210 45.418034,63.404694 45.833923,64.003181  z"></path><path fill="#9679C6" stroke="none" d=" M54.101791,33.043079   C54.712749,31.550463 54.955563,29.703520 55.995121,28.623407   C62.195610,22.181047 68.668152,16.000206 74.856430,9.546570   C77.123550,7.182240 78.863190,4.312120 80.921722,1.336363   C82.714355,1.000000 84.428719,1.000000 86.494370,1.333519   C85.627548,3.214279 84.542320,4.892437 83.168785,6.286549   C76.523972,13.030940 69.734428,19.634102 63.160545,26.445944   C61.756474,27.900841 61.035694,30.015160 59.627953,31.915539   C57.537785,32.351288 55.819786,32.697182 54.101791,33.043079  z"></path><path fill="#7484CE" stroke="none" d=" M111.583336,1.000001   C110.784958,2.714878 109.775177,4.631510 108.320824,6.111160   C100.227592,14.345115 92.006149,22.452906 83.882210,30.656973   C82.511139,32.041569 81.401421,33.684982 79.782463,35.495361   C78.587479,35.215355 77.780968,34.648804 77.053055,33.743431   C77.756058,32.439167 78.233513,31.327131 79.027626,30.530933   C87.014999,22.522635 95.100113,14.611308 103.040131,6.556766   C104.616692,4.957462 105.693001,2.865030 107.000000,1.000000   C108.388893,1.000000 109.777779,1.000000 111.583336,1.000001  z"></path><path fill="#8F7BC8" stroke="none" d=" M60.000130,31.825687   C61.035694,30.015160 61.756474,27.900841 63.160545,26.445944   C69.734428,19.634102 76.523972,13.030940 83.168785,6.286549   C84.542320,4.892437 85.627548,3.214279 86.922829,1.333519   C88.388893,1.000000 89.777779,1.000000 91.506134,1.333505   C90.627197,3.214455 89.541626,4.892780 88.167847,6.287141   C81.521873,13.032632 74.730965,19.636692 68.156425,26.450083   C66.752808,27.904699 66.035316,30.021385 64.587952,31.894547   C62.782818,31.912584 61.391476,31.869137 60.000130,31.825687  z"></path><path fill="#429CC4" stroke="none" d=" M129.000000,29.000000   C129.000000,29.750000 129.000000,30.500000 128.660248,31.703894   C126.529869,33.343010 124.469963,34.261971 122.992218,35.756538   C113.176750,45.683723 103.547890,55.795837 93.698326,65.688492   C91.894264,67.500450 89.357567,68.582962 87.082428,69.791924   C87.005791,69.581657 86.944710,69.138290 87.118988,68.844879   C99.718361,56.017586 112.113098,43.453205 124.622818,31.004370   C125.689964,29.942415 127.522842,29.649939 129.000000,29.000000  z"></path><path fill="#37A3BB" stroke="none" d=" M40.416664,129.000000   C43.164345,125.032524 46.119541,120.873016 49.543419,117.143822   C54.346134,111.912827 59.531910,107.035095 64.462791,101.918518   C65.209389,101.143814 65.463921,99.894890 66.399811,98.450684   C68.570648,98.079933 70.287735,98.123825 72.004814,98.167709   C67.394798,103.296738 62.768414,108.411171 58.179485,113.558983   C53.812721,118.457588 49.485073,123.391075 45.070114,128.654602   C43.611111,129.000000 42.222221,129.000000 40.416664,129.000000  z"></path><path fill="#4B95CC" stroke="none" d=" M51.037582,95.887444   C49.824120,97.625992 48.823883,99.573227 47.361122,101.067787   C40.143745,108.442139 32.754078,115.648033 25.549166,123.034286   C24.106276,124.513496 23.202578,126.518646 22.025133,128.640656   C20.611111,129.000000 19.222221,129.000000 17.416666,129.000000   C17.636774,127.868896 18.059093,126.523293 18.943111,125.639488   C29.094950,115.490021 39.316921,105.410698 50.035713,95.211014   C50.835842,95.292130 50.997967,95.551498 51.037582,95.887444  z"></path><path fill="#3E9EC1" stroke="none" d=" M87.159058,70.002190   C89.357567,68.582962 91.894264,67.500450 93.698326,65.688492   C103.547890,55.795837 113.176750,45.683723 122.992218,35.756538   C124.469963,34.261971 126.529869,33.343010 128.660248,32.078896   C129.000000,33.066669 129.000000,34.133339 129.000000,35.600002   C126.784103,37.382885 124.234169,38.423489 122.407982,40.205692   C112.527542,49.848194 102.841827,59.689960 93.044174,69.417900   C91.764763,70.688217 90.227364,71.698700 88.414017,72.599579   C87.732063,71.580490 87.445564,70.791336 87.159058,70.002190  z"></path><path fill="#449AC6" stroke="none" d=" M129.000000,28.600006   C127.522842,29.649939 125.689964,29.942415 124.622818,31.004370   C112.113098,43.453205 99.718361,56.017586 86.886726,68.749870   C86.305893,68.671944 86.131607,68.395622 85.957321,68.119301   C86.697533,66.856743 87.213722,65.372032 88.211998,64.365402   C100.588173,51.885742 113.025589,39.466717 125.483673,27.068686   C126.279915,26.276289 127.376213,25.785404 128.666473,25.077127   C129.000000,26.066669 129.000000,27.133339 129.000000,28.600006  z"></path><path fill="#837FCB" stroke="none" d=" M96.000000,1.000000   C97.066788,1.000000 98.133575,1.000000 99.522980,1.333512   C98.629967,3.211832 97.547981,4.888455 96.176208,6.279267   C89.189995,13.362502 82.064392,20.309471 75.147621,27.458977   C73.745514,28.908264 73.032784,31.024500 71.652092,32.879890   C70.202003,32.562096 69.102058,32.197670 68.087296,31.511724   C69.298233,29.776951 70.306320,28.247370 71.569290,26.969755   C78.571281,19.886572 85.674667,12.903259 92.643768,5.788236   C93.989418,4.414406 94.892670,2.607258 96.000000,1.000000  z"></path><path fill="#7E81CC" stroke="none" d=" M72.002243,32.833263   C73.032784,31.024500 73.745514,28.908264 75.147621,27.458977   C82.064392,20.309471 89.189995,13.362502 96.176208,6.279267   C97.547981,4.888455 98.629967,3.211832 99.922806,1.333512   C100.750000,1.000000 101.500000,1.000000 102.599869,1.359357   C101.805077,3.473701 100.908638,5.470618 99.473778,6.942730   C92.423386,14.176173 85.166473,21.208742 78.140747,28.465456   C76.740173,29.912069 76.030144,32.027252 74.682320,33.791649   C73.576042,33.443855 72.789139,33.138557 72.002243,32.833263  z"></path><path fill="#897DCA" stroke="none" d=" M95.600006,1.000000   C94.892670,2.607258 93.989418,4.414406 92.643768,5.788236   C85.674667,12.903259 78.571281,19.886572 71.569290,26.969755   C70.306320,28.247370 69.298233,29.776951 67.714600,31.571941   C66.505066,31.913473 65.753403,31.873268 65.001740,31.833061   C66.035316,30.021385 66.752808,27.904699 68.156425,26.450083   C74.730965,19.636692 81.521873,13.032632 88.167847,6.287141   C89.541626,4.892780 90.627197,3.214455 91.922806,1.333505   C93.066673,1.000000 94.133339,1.000000 95.600006,1.000000  z"></path><path fill="#7983CD" stroke="none" d=" M75.001701,33.834152   C76.030144,32.027252 76.740173,29.912069 78.140747,28.465456   C85.166473,21.208742 92.423386,14.176173 99.473778,6.942730   C100.908638,5.470618 101.805077,3.473701 102.974869,1.359357   C104.066673,1.000000 105.133339,1.000000 106.600006,1.000000   C105.693001,2.865030 104.616692,4.957462 103.040131,6.556766   C95.100113,14.611308 87.014999,22.522635 79.027626,30.530933   C78.233513,31.327131 77.756058,32.439167 76.725128,33.692192   C75.879646,33.931232 75.440674,33.882690 75.001701,33.834152  z"></path><path fill="#1AB6A4" stroke="none" d=" M73.375000,129.000000   C75.444298,126.384651 77.888588,123.769310 80.666245,121.076828   C79.384460,123.444145 77.769318,125.888588 76.077087,128.666504   C75.250000,129.000000 74.500000,129.000000 73.375000,129.000000  z"></path><path fill="#A774C3" stroke="none" d=" M1.000000,70.333328   C3.111554,68.717979 5.223108,67.435959 7.667602,66.077271   C5.906566,67.983650 3.812590,69.966690 1.359307,71.974861   C1.000000,71.555557 1.000000,71.111107 1.000000,70.333328  z"></path><path fill="#1AB6A4" stroke="none" d=" M125.337555,76.935204   C126.113785,75.716835 127.227974,74.434280 128.671082,73.075867   C129.000000,73.750000 129.000000,74.500000 129.000000,75.625000   C127.891838,76.290344 126.783676,76.580681 125.337555,76.935204  z"></path><path fill="#FFFFFF" stroke="none" d=" M74.682320,33.791649   C75.440674,33.882690 75.879646,33.931232 76.646545,34.031010   C77.780968,34.648804 78.587479,35.215355 79.699005,35.818600   C80.800255,36.521046 81.596481,37.186802 82.676453,37.984520   C83.424301,38.685963 83.888405,39.255444 84.609413,39.934731   C85.347054,41.261089 85.827789,42.477646 86.593727,43.864189   C87.254021,45.127766 87.629105,46.221359 88.085602,47.658897   C87.365341,49.012035 86.563675,50.021221 84.948036,51.033092   C82.091583,51.079620 80.049088,51.123466 77.574829,51.101639   C75.109329,50.987553 73.075592,50.939144 71.028046,50.541191   C70.018394,48.771809 69.022560,47.351974 67.762009,45.619797   C66.360458,45.204933 65.225540,45.060558 64.086403,45.008152   C61.273350,44.878742 58.367393,44.626701 57.380684,48.258068   C56.414524,51.813801 57.992268,54.173512 61.326065,56.002159   C63.420921,56.806194 65.195740,57.444016 67.165901,58.386860   C69.221901,59.164738 71.082573,59.637592 73.132332,60.406116   C74.866211,61.172958 76.410988,61.644135 77.955772,62.115311   C78.767586,62.673840 79.579391,63.232365 80.697899,63.812111   C81.798546,64.506813 82.592506,65.180290 83.671738,65.986465   C84.445862,66.708313 84.934708,67.297462 85.690437,68.002953   C86.131607,68.395622 86.305893,68.671944 86.712448,69.043274   C86.944710,69.138290 87.005791,69.581657 87.082428,69.791924   C87.445564,70.791336 87.732063,71.580490 88.092346,72.685577   C88.460556,73.790131 88.754997,74.578751 89.119080,75.685745   C89.136475,77.072655 89.084236,78.141190 89.099792,79.606583   C88.441956,82.414032 87.716347,84.824623 86.920006,87.611359   C84.649086,90.084854 82.448891,92.182205 80.109146,94.589767   C77.532562,95.879105 75.095528,96.858223 72.331650,98.002525   C70.287735,98.123825 68.570648,98.079933 66.428574,98.101822   C64.612610,98.119781 63.221630,98.071968 61.417618,98.090881   C59.379860,97.811066 57.755131,97.464500 55.707382,97.143021   C54.084873,96.772301 52.885384,96.376511 51.361740,95.934082   C50.997967,95.551498 50.835842,95.292130 50.326889,95.036880   C48.967495,94.053612 47.832417,93.142799 46.408447,92.096405   C45.178902,90.931816 44.238243,89.902794 43.065845,88.686508   C42.457157,87.443817 42.080208,86.388405 41.413063,85.146324   C40.810276,83.529465 40.497684,82.099274 40.009541,80.335846   C40.053452,79.697227 40.272915,79.391846 41.174019,79.021782   C43.573002,78.915382 45.290344,78.873657 47.454075,78.893860   C50.603580,78.915237 53.306694,78.874695 56.318069,78.999298   C58.085960,81.048363 59.545586,82.932266 61.354614,85.007698   C66.839561,86.628952 70.825829,85.407097 71.920731,81.734558   C73.001724,78.108658 72.348412,75.009796 67.840225,73.582672   C65.094650,72.574425 62.550243,71.870522 59.684082,71.000832   C57.588459,70.195152 55.814598,69.555260 53.861931,68.635231   C52.465771,67.881592 51.248417,67.408089 50.031063,66.934593   C49.075008,66.326180 48.118954,65.717758 46.812424,65.108383   C46.319881,64.863419 46.182426,64.616829 45.941757,64.185425   C45.418034,63.404694 45.002140,62.806210 44.325043,62.092720   C43.319675,60.573288 42.575516,59.168858 41.630692,57.468410   C41.290558,56.632046 41.151081,56.091694 40.945351,55.276386   C40.582027,53.897999 40.284954,52.794571 39.911068,51.345100   C40.233654,48.947605 40.633053,46.896156 41.078217,44.439831   C44.209106,39.239151 47.539513,34.739067 53.889404,33.333286   C55.819786,32.697182 57.537785,32.351288 59.627956,31.915539   C61.391476,31.869137 62.782818,31.912584 64.587952,31.894547   C65.753403,31.873268 66.505066,31.913473 67.629425,31.893459   C69.102058,32.197670 70.202003,32.562096 71.652092,32.879890   C72.789139,33.138557 73.576042,33.443855 74.682320,33.791649  z"></path><path fill="#A774C3" stroke="none" d=" M24.334179,49.923382   C27.778263,46.051891 31.555815,42.103210 35.666985,38.077644   C32.222946,41.949234 28.445297,45.897713 24.334179,49.923382  z"></path><path fill="#A774C3" stroke="none" d=" M44.334213,29.923428   C46.778439,27.051989 49.556076,24.103334 52.667336,21.077950   C50.223183,23.949551 47.445404,26.897882 44.334213,29.923428  z"></path><path fill="#A774C3" stroke="none" d=" M15.281214,59.823639   C17.443285,57.051228 19.887554,54.103172 22.666197,51.077904   C20.521517,53.883121 18.042463,56.765556 15.281214,59.823639  z"></path><path fill="#A774C3" stroke="none" d=" M36.333847,37.923481   C38.111897,35.718513 40.223022,33.436432 42.667385,31.077547   C40.889389,33.282619 38.778156,35.564491 36.333847,37.923481  z"></path><path fill="#6988D1" stroke="none" d=" M49.854980,67.221909   C51.248417,67.408089 52.465771,67.881592 53.685516,68.924301   C51.461166,72.606323 49.234425,75.719131 47.007687,78.831940   C45.290344,78.873657 43.573002,78.915382 41.430084,78.894852   C43.895969,75.058144 46.787434,71.283676 49.854980,67.221909  z"></path><path fill="#558FD3" stroke="none" d=" M78.038300,61.767891   C76.410988,61.644135 74.866211,61.172958 73.311401,60.113186   C74.869781,56.738831 76.438194,53.953075 78.006599,51.167316   C80.049088,51.123466 82.091583,51.079620 84.567680,51.100803   C82.707802,54.584045 80.414307,58.002262 78.038300,61.767891  z"></path><path fill="#1AB6A4" stroke="none" d=" M99.333054,102.922470   C101.444016,100.384247 103.888412,97.769104 106.666161,95.076828   C104.555168,97.614983 102.110825,100.230270 99.333054,102.922470  z"></path><path fill="#1AB6A4" stroke="none" d=" M112.337685,89.920151   C113.479111,88.116615 114.958572,86.233788 116.719452,84.175781   C115.559143,85.947350 114.117432,87.894104 112.337685,89.920151  z"></path><path fill="#1AB6A4" stroke="none" d=" M87.328583,114.923691   C88.113647,113.716736 89.227676,112.434082 90.670547,111.075485   C89.885437,112.282356 88.771492,113.565178 87.328583,114.923691  z"></path><path fill="#1AB6A4" stroke="none" d=" M109.285782,92.904549   C109.475639,92.396309 109.951576,91.793098 110.713501,91.094772   C110.523613,91.602959 110.047745,92.206276 109.285782,92.904549  z"></path><path fill="#1AB6A4" stroke="none" d=" M82.285782,119.904602   C82.475647,119.396362 82.951599,118.793144 83.713531,118.094810   C83.523636,118.602997 83.047752,119.206306 82.285782,119.904602  z"></path><path fill="#5391D1" stroke="none" d=" M61.005211,84.816177   C59.545586,82.932266 58.085960,81.048363 56.392082,78.668724   C57.440498,75.837540 58.723167,73.502075 60.005836,71.166618   C62.550243,71.870522 65.094650,72.574425 67.759857,73.924011   C65.588844,77.985184 63.297024,81.400681 61.005211,84.816177  z"></path><path fill="#4A96CB" stroke="none" d=" M61.354614,85.007698   C63.297024,81.400681 65.588844,77.985184 67.961029,74.228348   C72.348412,75.009796 73.001724,78.108658 71.920731,81.734558   C70.825829,85.407097 66.839561,86.628952 61.354614,85.007698  z"></path><path fill="#5E8BD3" stroke="none" d=" M59.684082,71.000832   C58.723167,73.502075 57.440498,75.837540 56.083824,78.503571   C53.306694,78.874695 50.603580,78.915237 47.454075,78.893860   C49.234425,75.719131 51.461166,72.606323 53.864319,69.204445   C55.814598,69.555260 57.588459,70.195152 59.684082,71.000832  z"></path><path fill="#6B87D1" stroke="none" d=" M68.026718,45.932140   C69.022560,47.351974 70.018394,48.771809 70.947121,50.882565   C69.576859,53.742935 68.273712,55.912384 66.970566,58.081833   C65.195740,57.444016 63.420921,56.806194 61.352722,55.654072   C63.381805,52.070560 65.704262,49.001350 68.026718,45.932140  z"></path><path fill="#7684CE" stroke="none" d=" M67.762009,45.619797   C65.704262,49.001350 63.381805,52.070560 61.032684,55.487854   C57.992268,54.173512 56.414524,51.813801 57.380684,48.258068   C58.367393,44.626701 61.273350,44.878742 64.086403,45.008152   C65.225540,45.060558 66.360458,45.204933 67.762009,45.619797  z"></path><path fill="#5E8BD4" stroke="none" d=" M67.165894,58.386856   C68.273712,55.912384 69.576859,53.742935 70.960930,51.232109   C73.075592,50.939144 75.109329,50.987553 77.574829,51.101639   C76.438194,53.953075 74.869781,56.738831 73.122307,59.817520   C71.082573,59.637592 69.221901,59.164738 67.165894,58.386856  z"></path></svg>